/* XPM */
static char *_9809b697fe541bda3469035fae79da6[] = {
/* columns rows colors chars-per-pixel */
"16 16 169 2 ",
"   c #3F330E",
".  c #444817",
"X  c #574613",
"o  c #594211",
"O  c #5C4E15",
"+  c #5F5418",
"@  c #624713",
"#  c #694D14",
"$  c #734216",
"%  c #645217",
"&  c #6E5217",
"*  c #665F1C",
"=  c #6C5E1B",
"-  c #78571A",
";  c #72581B",
":  c #7C5918",
">  c #7C591A",
",  c #69661F",
"<  c #656A20",
"1  c #706C21",
"2  c #717121",
"3  c #7D7222",
"4  c #845F1E",
"5  c #8D5F1A",
"6  c #8C631E",
"7  c #866D1E",
"8  c #99711F",
"9  c #876C20",
"0  c #846F22",
"q  c #846E24",
"w  c #8D6E20",
"e  c #936E20",
"r  c #8E7120",
"t  c #8F7527",
"y  c #997521",
"u  c #9D7125",
"i  c #9E7024",
"p  c #9B7626",
"a  c #9A7726",
"s  c #927924",
"d  c #9D7925",
"f  c #917A2C",
"g  c #9C7E28",
"h  c #A47923",
"j  c #A27F27",
"k  c #A77D27",
"l  c #A37728",
"z  c #A17C29",
"x  c #AE7C2E",
"c  c #B67B24",
"v  c #BA7F23",
"b  c #A08127",
"n  c #A7852B",
"m  c #A0832C",
"M  c #AC8529",
"N  c #AC872A",
"B  c #A1882D",
"V  c #AC8B28",
"C  c #AC8C2E",
"Z  c #BA8024",
"A  c #B28129",
"S  c #B0822A",
"D  c #B6872B",
"F  c #B8862C",
"G  c #B28A2D",
"H  c #B08C2E",
"J  c #B98B2E",
"K  c #BB8C2E",
"L  c #BA8D2E",
"P  c #BB8D2F",
"I  c #B9912F",
"U  c #BA912F",
"Y  c #A79030",
"T  c #B29432",
"R  c #B99232",
"E  c #BD9230",
"W  c #BA9631",
"Q  c #BB9734",
"!  c #B19830",
"~  c #B29933",
"^  c #B59830",
"/  c #BF9D36",
"(  c #BA913D",
")  c #B4A732",
"_  c #C78B2C",
"`  c #D28A29",
"'  c #C4902F",
"]  c #CD902F",
"[  c #D19E2D",
"{  c #C19430",
"}  c #C69134",
"|  c #CA9630",
" . c #C99532",
".. c #CE9631",
"X. c #CF9734",
"o. c #C29A31",
"O. c #C09D33",
"+. c #C59C34",
"@. c #CA9833",
"#. c #CC9835",
"$. c #CD9F38",
"%. c #D29430",
"&. c #D09632",
"*. c #D09933",
"=. c #D49936",
"-. c #D09C35",
";. c #D29D37",
":. c #D99F34",
">. c #DB9E35",
",. c #D29E3A",
"<. c #D69D39",
"1. c #D59D3A",
"2. c #DB9F38",
"3. c #CAA134",
"4. c #CDA238",
"5. c #CFA03C",
"6. c #D1A334",
"7. c #D6A537",
"8. c #D8A137",
"9. c #DFA036",
"0. c #D8A637",
"q. c #DEA637",
"w. c #DFA737",
"e. c #D4A539",
"r. c #D9A33B",
"t. c #D9A738",
"y. c #DAA738",
"u. c #DDA639",
"i. c #DEAC38",
"p. c #D8A83D",
"a. c #DFAE3C",
"s. c #DFAC3F",
"d. c #CDB13D",
"f. c #D6B03E",
"g. c #D8B23B",
"h. c #E0A337",
"j. c #E2A436",
"k. c #E7A937",
"l. c #E2A738",
"z. c #E1A838",
"x. c #E1A939",
"c. c #E2A93A",
"v. c #E1AF38",
"b. c #E1AD3B",
"n. c #E3AD3B",
"m. c #E2AA3E",
"M. c #ECB837",
"N. c #E9B33B",
"B. c #E4BF39",
"V. c #DFA541",
"C. c #DEAF47",
"Z. c #DEB645",
"A. c #E4AD40",
"S. c #E6B640",
"D. c #E7BC41",
"F. c #E3BB45",
"G. c #E6BE44",
"H. c #EDBA41",
"J. c #E9BF43",
"K. c #E2C346",
"L. c #E4C644",
"P. c #EAC044",
"I. c #E5C841",
"U. c #EFCF45",
"Y. c #E2C44D",
"T. c #EACE4C",
"R. c #F1C948",
"E. c #F8D947",
"W. c None",
/* pixels */
"W.W.W.W.W.W.W.W.W.W.W.W.W.W.W.W.",
"W.W.W.W.Z.K.g.| ] @.f.Y.W.W.W.W.",
"W.W.W.T.U.M.v 6 h V B.E.G.W.W.W.",
"W.W.J.! 8 ` %...#.e.I.) O.2.W.W.",
"W.V.D @ i 1.q.q.l.X.} p # _ C.W.",
"W.1.> d h.u.b.a.v.N.l.9.6 y P.W.",
"W.+.= t.l G U W t n j e K 3 L.W.",
"W.! 1 y.S N g f ^ C N ,.( 2 d.W.",
"W.Y , *.k r 7 0 T b w J L * U W.",
"W.R % S :.U 4.$.o.6.{ } z % | W.",
"W.p.& - =.;.t.i.7.5.r.>.; > S.W.",
"W.W.H O q *.l.l.l.k.*.4 o L W.W.",
"W.W.F.B < . m F x p   X a V.W.W.",
"W.W.W.A.O.s [ c $ Z 7 Q m.W.W.W.",
"W.W.W.W.W.H.n.8.$.J.R.W.W.W.W.W.",
"W.W.W.W.W.W.W.W.W.W.W.W.W.W.W.W."
};
