/* XPM */
static char *d3841cb765f34b38aba97fc27c9da57d[] = {
/* columns rows colors chars-per-pixel */
"64 64 256 2 ",
"   c #040B03",
".  c #0B0C03",
"X  c #020301",
"o  c #081105",
"O  c #121406",
"+  c #1C1D09",
"@  c #171807",
"#  c #100F04",
"$  c #241C06",
"%  c #1C230A",
"&  c #2C2203",
"*  c #24230A",
"=  c #2A250B",
"-  c #2C2B0D",
";  c #24290C",
":  c #312604",
">  c #352805",
",  c #3A2D06",
"<  c #332C0C",
"1  c #3C2D0A",
"2  c #33260B",
"3  c #32320E",
"4  c #3D320C",
"5  c #3F3107",
"6  c #383811",
"7  c #313012",
"8  c #44340C",
"9  c #46350A",
"0  c #4A2812",
"q  c #433B12",
"w  c #4A3A11",
"e  c #513E11",
"r  c #593713",
"t  c #4D3710",
"y  c #643C17",
"u  c #384515",
"i  c #56440F",
"p  c #4B4414",
"a  c #464515",
"s  c #544313",
"d  c #594512",
"f  c #5A4B17",
"g  c #575219",
"h  c #644D15",
"j  c #694A17",
"k  c #774C18",
"l  c #6B5519",
"z  c #685719",
"x  c #755B1A",
"c  c #7C5C1B",
"v  c #735518",
"b  c #6B631E",
"n  c #7C631D",
"m  c #74621D",
"M  c #785825",
"N  c #7D5F31",
"B  c #786921",
"V  c #7B7525",
"C  c #77672E",
"Z  c #835A1B",
"A  c #84651D",
"S  c #8C6A1D",
"D  c #8A651D",
"F  c #94691E",
"G  c #A16A1E",
"H  c #8C6D23",
"J  c #866A24",
"K  c #976B22",
"L  c #887624",
"P  c #937523",
"I  c #9B7523",
"U  c #9C7B25",
"Y  c #987929",
"T  c #967333",
"R  c #937136",
"E  c #A26B22",
"W  c #A37323",
"Q  c #A47C25",
"!  c #AA7928",
"~  c #B47B25",
"^  c #B47E2D",
"/  c #BA7C25",
"(  c #AC7C32",
")  c #8E5C20",
"_  c #C37D25",
"`  c #C57F28",
"'  c #937F49",
"]  c #868229",
"[  c #9A862A",
"{  c #98952F",
"}  c #AB8126",
"|  c #AB852B",
" . c #AD8B2A",
".. c #A48729",
"X. c #BC8526",
"o. c #B5832D",
"O. c #BC842D",
"+. c #B48C2C",
"@. c #BB8C2C",
"#. c #B38526",
"$. c #A9942E",
"%. c #B4932E",
"&. c #BD922C",
"*. c #B8992F",
"=. c #AB8439",
"-. c #BA8432",
";. c #BC8B33",
":. c #B48836",
">. c #A79C32",
",. c #BB9433",
"<. c #BC9C31",
"1. c #BB953A",
"2. c #B59935",
"3. c #A9A534",
"4. c #B8A433",
"5. c #BAB339",
"6. c #C38327",
"7. c #CC8426",
"8. c #C2852B",
"9. c #C38B2B",
"0. c #CA8C2C",
"q. c #CA8928",
"w. c #D38C2A",
"e. c #DA8D28",
"r. c #C3942C",
"t. c #CA932D",
"y. c #C79A2E",
"u. c #D2942D",
"i. c #DB942B",
"p. c #DD9B2E",
"a. c #D5982B",
"s. c #C38C32",
"d. c #C98D32",
"f. c #C49333",
"g. c #CC9434",
"h. c #CC9B34",
"j. c #CD9C3A",
"k. c #C49938",
"l. c #D29533",
"z. c #D49C34",
"x. c #DA9D34",
"c. c #D49D3A",
"v. c #DA9E39",
"b. c #D39638",
"n. c #D08E30",
"m. c #E2952B",
"M. c #E39C2D",
"N. c #EB9D2E",
"B. c #E39B38",
"V. c #E18F29",
"C. c #DAA22D",
"Z. c #C4A333",
"A. c #CDA234",
"S. c #CCA43B",
"D. c #CAAB37",
"F. c #D4A334",
"G. c #DCA335",
"H. c #D3AC35",
"J. c #DCAA36",
"K. c #D5A33B",
"L. c #DBA43A",
"P. c #D6AB3B",
"I. c #DCAB3B",
"U. c #C6B639",
"Y. c #D4B33B",
"T. c #DCB43D",
"R. c #D8B73A",
"E. c #E9A12F",
"W. c #E2A434",
"Q. c #ECA531",
"!. c #E4AB35",
"~. c #EBAB34",
"^. c #E2A539",
"/. c #E3AC3A",
"(. c #EBAD3A",
"). c #EAA538",
"_. c #E5B336",
"`. c #EBB336",
"'. c #E4B33B",
"]. c #EBB43A",
"[. c #E4BB3C",
"{. c #ECBB3C",
"}. c #F3BC3C",
"|. c #F3B538",
" X c #F2A731",
".X c #D7C43D",
"XX c #CEC53F",
"oX c #E3C23D",
"OX c #EEC33D",
"+X c #EDCA3E",
"@X c #EAC83A",
"#X c #F4C43D",
"$X c #F7C83D",
"%X c #F2D03F",
"&X c #B58D45",
"*X c #B2914E",
"=X c #BDA16A",
"-X c #BF9C67",
";X c #C69B47",
":X c #D29D42",
">X c #C29A59",
",X c #E89E42",
"<X c #CCA242",
"1X c #CDAB43",
"2X c #C9A74C",
"3X c #D4A342",
"4X c #D4AB43",
"5X c #DBAC42",
"6X c #D6A74A",
"7X c #DCB343",
"8X c #DCBB44",
"9X c #D4B34A",
"0X c #DBBB4A",
"qX c #D6B648",
"wX c #D2AA55",
"eX c #D8B956",
"rX c #CDAA53",
"tX c #E6AA44",
"yX c #E3B443",
"uX c #EBB442",
"iX c #E3BB43",
"pX c #EABD43",
"aX c #E6B84B",
"sX c #F2BD46",
"dX c #E5BA54",
"fX c #F0A340",
"gX c #DCC647",
"hX c #DEC952",
"jX c #D5D144",
"kX c #E4C445",
"lX c #EBC342",
"zX c #ECCC43",
"xX c #E4C44B",
"cX c #E4CB4C",
"vX c #E8CC48",
"bX c #F3C342",
"nX c #F6CD42",
"mX c #F9C942",
"MX c #EBD649",
"NX c #F5D342",
"BX c #F9D543",
"VX c #F3DA44",
"CX c #FBDB44",
"ZX c #F2D549",
"AX c #F4DA4B",
"SX c #E6C954",
"DX c #ECD452",
"FX c #E9D753",
"GX c #F3D05A",
"HX c #FCE247",
"JX c #FAE349",
"KX c #FCEB4A",
"LX c #F5E34C",
"PX c #F3E452",
"IX c #E3C367",
"UX c None",
/* pixels */
"UXUXUXUXUXUXUXUXUXUXUXUXUXUXUXUXUXUXUXUXUXUXUXUXUXUXUXUXUXUXUXUXUXUXUXUXUXUXUXUXUXUXUXUXUXUXUXUXUXUXUXUXUXUXUXUXUXUXUXUXUXUXUXUX",
"UXUXUXUXUXUXUXUXUXUXUXUXUXUXUXUXUXUXUXUXUXUXUXUXUXUXUXUXUXUXUXUXUXUXUXUXUXUXUXUXUXUXUXUXUXUXUXUXUXUXUXUXUXUXUXUXUXUXUXUXUXUXUXUX",
"UXUXUXUXUXUXUXUXUXUXUXUXUXUXUXUXUXUXUXUXUXUXUXUXUXUXUXUXIXIXeXaX(.tX,X,XUXUXUXUXUXUXUXUXUXUXUXUXUXUXUXUXUXUXUXUXUXUXUXUXUXUXUXUX",
"UXUXUXUXUXUXUXUXUXUXUXUXUXUXUXUXUXUXUXUXUXUXUXdXdXqX7XpX7X_.yXqXaX[.[.[.7X'.uXyXyXUXUXUXUXUXUXUXUXUXUXUXUXUXUXUXUXUXUXUXUXUXUXUX",
"UXUXUXUXUXUXUXUXUXUXUXUXUXUXUXUXUXUXUXUX,X/.'.[.{.8X7XR._.7XP.1X4XS.3X9XqX0XkXlXxX0XlXdXUXUXUXUXUXUXUXUXUXUXUXUXUXUXUXUXUXUXUXUX",
"UXUXUXUXUXUXUXUXUXUXUXUXUXUXUXUXUXUXB.W.7XgXkXqXqX8XY.J._.J.G.a.0.7.6.0.g.;.c.7X9XcXZXgXeXIXUXUXUXUXUXUXUXUXUXUXUXUXUXUXUXUXUXUX",
"UXUXUXUXUXUXUXUXUXUXUXUXUXUXUXUXUX/.oXcXhXqXqXR.oX[.oX#XJ.u.u.w.V.i.w.w.M.M.X.I r.j.T.MXMXcXxXUXUXUXUXUXUXUXUXUXUXUXUXUXUXUXUXUX",
"UXUXUXUXUXUXUXUXUXUXUXUXUXUXUXtX[.vXvXqXqXcX%XCXBXU Q |.X.d k _ m.N.G I  X|.! D `.!.F.A.R.LXAXzXdXUXUXUXUXUXUXUXUXUXUXUXUXUXUXUX",
"UXUXUXUXUXUXUXUXUXUXUXUXUXUXbXvXDXgX1XjXVXCX%XOX#XF F N._ k k 8.Z ) I W C.y.%.h y.mXOX{.J.D.8XFXkX{.UXUXUXUXUXUXUXUXUXUXUXUXUXUX",
"UXUXUXUXUXUXUXUXUXUXUXUXdXxXAXDXqXgXMXJXNX#X{.~. XG j _ q.Z D ~ 1 1 D @.F.A n t P NX+X%XBX+XY.1XxXzX_.UXUXUXUXUXUXUXUXUXUXUXUXUX",
"UXUXUXUXUXUXUXUXUXUXUXxXgXhXhXY.vXHXBX+X{.`.!.p.i.6.G 9 e G X.K c @.r.F.y.n [ z H.nXnXBXBXHXJX+XqX8XkX!.^.UXUXUXUXUXUXUXUXUXUXUX",
"UXUXUXUXUXUXUXUXUXUXsX+XDXcXY.VXCX+X}.`.~.p.i.w.w.m.N.W W C.Z A I +X#XH.m ..BXVXBXnXBXCXHXHXHXHXMXP.4X8XM.B.UXUXUXUXUXUXUXUXUXUX",
"UXUXUXUXUXUXUXUXUXUXOXMX0XY.MX.X{.}.|.Q.i.w.e.i.m.p.a.M.M.9.W ! c ( k.A.R.+X%XCXBXCXCXJXKXKXCXBXCXzX<X2X5Xi.UXUXUXUXUXUXUXUXUXUX",
"UXUXUXUXUXUXUXUXUX_.kX0XY.VX4.q <.`.F c q.V.m.i.q.X.o.O.u.l.v.b.s.:.s.s.&X9.A.8XCXKXJXCX.X.XHX.X[ @X#Xk.c.v.e.UXUXUXUXUXUXUXUXUX",
"UXUXUXUXUXUXUXUX].8X9X1XOXNXn $ #.h # d m.N.q.^ o.n.W.x.b.x.C.Q.~.W.W.:X;Xp.w.@.<.gXKXJXB 6 >.5.-  .$X`.k.c.g.b.UXUXUXUXUXUXUXUX",
"UXUXUXUXUXUXUX!.!.yXS._.L r.x < W k D m.p.^ o.b.W.W.G.v.k.L.G.G.z.z.v.G.G.c.v.B.l.^ 2.VXXXa e *.3 n _.!.W.s.<Xc.B.UXUXUXUXUXUXUX",
"UXUXUXUXUXUXUXG./.j.T.A.: l / * $ w 0.p.^ 0.W.G.G.G.v.G.G.W.Q.K.S.G.v.z.K.G.v.=.R -.^ o.[.oXH x = U m l  Xq.s.L.v.UXUXUXUXUXUXUX",
"UXUXUXUXUXUXL.K.S.g.|.t.$ e i.W t f ! O.x.W.W.v.G.!.G.G.L.W.~.P.W.~.j.j.G.G.L.( N T ).l.;.+.3 . i C.6 1 N.m./ z.I.wXUXUXUXUXUXUX",
"UXUXUXUXUXUXb.c.f.a.A X.h + t Z C.a.O.;.f.:X6X^.(.!.W.!.G./.!.K.(.`.!.v.G.G.G.G.-.:.G.!.v.^ Y Q 9.X.; e V.e.q.6.'.9XUXUXUXUXUXUX",
"UXUXUXUXUX<Xc.d.q./ @ D 9.h @ s r.@.l.:.:.:X;XG.G.G.!.~.I./.!.(.`.5XI.G.S./.!.~./.v.C.v.G.v.s.0.i $ * / G n N.q.J.iXeXUXUXUXUXUX",
"UXUXUXUXUX3XK._ V.! o l 0.#.@.!.O.d.z.v.c.G.x.G.3XK.I.I./.S.S./.J.I./.`._.J.`.!.`.K.k.g.z.L.d.! Z j / w.8 e ~.p.g.lXlXUXUXUXUXUX",
"UXUXUXUXwX6Xc./ N.a.- - 2 * y.h.o.c.W.G.G.L.~./.4X'.(.'.'.&X:./.`.].].`.]././.!.G.c.c.~.W.v.v.9.w.~ ) I < s `.`.g.8XvXdXUXUXUXUX",
"UXUXUXUX6X4X0.w.A r.W e s ..J.^ b.W.W.G.!.G.G.`./.I.I.'.P.I.T.I.I.'.].`.(.I.K.I.P.!.W.!.W.G.v.G.s.E = @ + U }.~.G.S.hXlXUXUXUXUX",
"UXUXUXUX4X7Xn.u.: g C...@.$Xr.s.W.W.(.tXuX`.L.L./.].{.5XI.].}._.uXbXbXlXuX'.'.6XyX`.(.c.].|.v.W.d.0.&.c U A.b <.OXD.FXVXUXUXUXUX",
"UXUXUXtXpX5X0.W.3 O p $ %.OXO.x.W.(.t.R +.`.L.k.yX].| h.sXT.{.mX{.<.Q Y j.lX{.].'.}.J.T K } z.!.x.@.!.S #.] $ $.BXT.vXZXbXUXUXUX",
"UXUXUX/.vXA.u.#XU O % J zXS.-.W.W.W 8 : , } }.`.pX,.2 x #XpXbX%.d , 2 2 5 H {.}.sX+.d , > : h u.(.-.G.L * ; + U.HX[.qXMX$XUXUXUX",
"UXUXUXiXhXP.@.B A.[ [ ..@X2.^  X^.j C J : x pXuX'...& x OXbXy., < Y 1.2.h & | bX .: 8 I <.S & v ^.d.y.oXB = b LXVXzX9XxXOXUXUXUX",
"UXUXUXxXDX/.r.+ g H.g f zXk.g.G.C.-.eX+.> n }.5X}.Q $ L CXnXA $ ' GXbXZXU $ [ S.5 8 r.}.sXy., d W.E.,.$.L 4.R.V >.LX0XgX}.UXUXUX",
"UXUXUXZXZXK._.p o q + 3.zXO.).j.v.(.sXF : K yX{.#XA :  .0X9XA $ ..JXBXnXH w D.P $ S OX(.].@.> S tX:X-.2.- [ { % { KX8X7X_.UXUXUX",
"UXUXUXDXxXA.BX5.3 ; ] XXR.o.M.z.z.~.].l :  .}.OX'.i 5 ,.' *XR.h 5 x [ [.7XY.iXh 5 h.`.P.].z.#.v.wX-X=.lXV @ O 3 jXKX8X5X'.UXUXUX",
"UXUXaXhXkX%.L U.U.5.b b kX0.z.x.v.G.!.i 8 A.}.}.,., 9 <.qXxXZ.z > < i H.lXaX1X9 e /.].5X1.:.(.!.wX>X&X*.3.b 6 5.LXVX5X1X5X(.UXUX",
"UXUXqXSXlXZ.- * >.V @ >.gX@.W.W.G.G.+.5 h K.yXpXS & f [.AX$.2 s 4.U.oXlXlXlXS.8 i '.].5XR N G.v.;X*Xs...6 { XX5.b Z.T.<X5XQ.UXUX",
"UXUXeXxX_.oX3.- + % ] 5.2.O.v.h.f.'.P : D {.OXH.i & x NXkXe , D.AXBXNXlXOXmX5Xe 8 A.}._.j.k.!.~.W.z.8.kXb % V * = U.Y.g.v.).UXUX",
"UXUXeXaX'.D.U.XX{ 5.>.7 ..u.).;.T _.D & ..mX{.v h 5 n JX.X9 4 eXDXrXaXnXnXnXD.d & A #X}.].].tX/.z.W.O.B 4.g % 7 $.#Xj.n.v.UXUXUX",
"UXUXUXeX}.*.; u 4.U.% p iXs.B.G.c.].D $ j  .h d  .1 i *.H , : d [ =.%.%.[ m t i 9 > x } @.#.D l ;.~.l.q p D.y.Z.%.A.h.x.L.UXUXUX",
"UXUXUX9X'.{.V o + q = $.<.+.x.W.G.!.r.9 > : e H.[.h > > q U J 1 > 8 , , > , l k.,.h 2 , 5 1 > i z.W.z.$.O z $.4 + r.p.I.6XUXUXUX",
"UXUXUX6Xc.I.vX>.b p 4.P 6 9.a.W.G.G.(.g.U } j.I.{._.| U A.nXlXD.%...U  .y.P.}.}.yXK.@.Q I | @.z.W.x.n >.L * @ o n W.u.7X4XUXUXUX",
"UXUXUXyXn.b.4...%.Z.*.@ f x.0.).v.W.j.I.uX/.I.P.T.T.yXpXbX#X$XmXmXmXbXmX$X$X}.}.{.I.'.].].(.).5XB.x.f 3 4.L c  ._.a.f.yXL.UXUXUX",
"UXUXUXsXc.L. .- @ g f O Q r.X.b.l.x.v.h.z.J.}.`.P.7XpXA.I.P.k.<X#X}.'.{.}.T./._.F.1./.(.(.v.L.s.;.d.,.o h h.P c X.w.P.iXB.UXUXUX",
"UXUXUXUXP.4XL.U 2 @ 3 } S q ^ s.C.W.`.@.Q r.h.f.:.3Xj.A.A.+.2.1.S.J.P.F.y.h._.&.#.y.h.y.;.g.G.-.-.H  .n 7 w . 2 ~ n.xXyXUXUXUXUX",
"UXUXUXUX'.3Xg.!.F. .Q u.2 < e.^ g.x.B.;.J Y ;.@.:.:.1./.y.k.y.r.%.,.&.@.%.z.I.&.,.@.+.! ^ k.z.g.l.x < r.m 2 8 W e.j.SX'.UXUXUXUX",
"UXUXUXUXsX'.K.t.J z l c + v / ! s.).W.G.=.=.K.^./.'.iX{./._._.`.`./.S.1.k.K.!.=X=XG.L.G.^.5X^.8.z...@ A o.X.i.V._ 8XBXtXUXUXUXUX",
"UXUXUXUXUX'.0Xd.s . o O e ~ > Q s.p.:X6XL.!.z.K.G.(.'.'.I.`.].{.uX`.j.:.1.j.K.rX6XW.c.G.W.Q.x.O.I I < 6 s < d 7.s.FX$XUXUXUXUXUX",
"UXUXUXUXUXaXxXI.` v 4 8 #.F # L F.! B.6XG.W.W.G.z.G.L.K./.'.`.`.I.P.j.j.z.G.L.W.W.G.z.z.x.b.-.l.t d #.+   # v q.9XPXpXUXUXUXUXUX",
"UXUXUXUXUXUXkXxX8.V.Q.M.} z +  .P f 9.g.v.W.W.G.G.W.K.G.G.L.S.L.!.!.!.^.!.!.!.~.!.!.x.^.x.-.J 9.8 < X.D x F i.f.DXOXUXUXUXUXUXUX",
"UXUXUXUXUXUXpXZXR.6.W z p $ a H.w - h.;.v.).W.!.G.G.G.C.G.G.j.K./.!.W.(.!.G.~.W.W.G.v.x.n.K & Q j ; c 6. X X8.7XzX].UXUXUXUXUXUX",
"UXUXUXUXUXUXUXSXPXL.8   o + V R.q % qXB K x.~.x.L.G.W.C.v.L.W.W.3XL.G.L.^.~.C.v.v.W.g.T 6.D # F ! @ @ = h 0.z.xX_.UXUXUXUXUXUXUX",
"UXUXUXUXUXUXUX9XhXLXr.A J H.Y.L * g XX% p 1.! g.B.W.v.K.G.v.z.p.z.W.5Xv.v.x.G.^.B.9.! w j E @ c ! l + @ f 9.pX7XyXUXUXUXUXUXUXUX",
"UXUXUXUXUXUXUXUX7XAXbXC.+XY.[ <   ] jX6 u 3.; g s.:Xg.n.v.).).W.x.:X*X6Xx.x.a.t.j 6 F @ d w.+ - Q |.y.@.r.W.T./.UXUXUXUXUXUXUXUX",
"UXUXUXUXUXUXUXUXUXT.DXpX+.6 X   g 3.3.a 3 5.3 @ 3.4Xg.x.x.G.W.z.b.s.( n.n.s.d.W @ < c o v #.q o > v P.C.z.L.!.UXUXUXUXUXUXUXUXUX",
"UXUXUXUXUXUXUXUXUX6X5XvXS.z f [ MXMXV O $ ] u O { gX<.m b ) k ^ 9.W 8.H x 8.E.F # s v o 4 U Z.h o   n G.3X1XdXUXUXUXUXUXUXUXUXUX",
"UXUXUXUXUXUXUXUXUXUX6XW.kX8XqXKXjXa o O V ] % o 3 g a a L W y h.! r K F 4 q s 3 o 3 l +   p A.{.#.H s.v.x.dXUXUXUXUXUXUXUXUXUXUX",
"UXUXUXUXUXUXUXUXUXUXUXB.F.7X9XqX3.q 6 [ MXL o $ >._._.`.OX`.Z k 0 0 0 E m.~ W v o 2 r...* # p _.5X6Xv.x.uXUXUXUXUXUXUXUXUXUXUXUX",
"UXUXUXUXUXUXUXUXUXUXUXUXfXG.K.K.S.Y.zXLX]   $ [ $X{.`.~.E.~./ 0 0 r 0 y V.M.N.E.s X 3 F.Z.P U j.4X4X!.|.UXUXUXUXUXUXUXUXUXUXUXUX",
"UXUXUXUXUXUXUXUXUXUXUXUXUXUXm.l.:XK.P.R.[ B %.#X`.!.!.W.p.p.E.W y k y k q.M.p.Q.x.l s ..'.P.7XyX/.(.UXUXUXUXUXUXUXUXUXUXUXUXUXUX",
"UXUXUXUXUXUXUXUXUXUXUXUXUXUXUXB.z.S.c.f.C._.}.`.Q.W.p.p.C.i.m.7.) ` E E a.E.W.!.|.`.F.y.j.0XxX_.E.UXUXUXUXUXUXUXUXUXUXUXUXUXUXUX",
"UXUXUXUXUXUXUXUXUXUXUXUXUXUXUXUXaX).5X5XG.z.t.9.n.p.M.i.V.e.e.w.) ` ~ X. XW.W.a.t.F.I.kXvXlXW.,XUXUXUXUXUXUXUXUXUXUXUXUXUXUXUXUX",
"UXUXUXUXUXUXUXUXUXUXUXUXUXUXUXUXUXUXuXyX0XpX`.L.z.9.6._ _ _ 7.7.) ^ / o.h.t.h.R.iXzXDXcXpX(.UXUXUXUXUXUXUXUXUXUXUXUXUXUXUXUXUXUX",
"UXUXUXUXUXUXUXUXUXUXUXUXUXUXUXUXUXUXUXUXSXpXkXmXzXkXxX0XP.<X2X<X;X;X1X0XcXcXvXLXJXDXxXdXUXUXUXUXUXUXUXUXUXUXUXUXUXUXUXUXUXUXUXUX",
"UXUXUXUXUXUXUXUXUXUXUXUXUXUXUXUXUXUXUXUXUXUXUXSXSXxXvXZXAXFXFXPXPXDXFXAXLXDXhXSXSXUXUXUXUXUXUXUXUXUXUXUXUXUXUXUXUXUXUXUXUXUXUXUX",
"UXUXUXUXUXUXUXUXUXUXUXUXUXUXUXUXUXUXUXUXUXUXUXUXUXUXUXuXsXuXuX|.uXsXdXsXsXUXUXUXUXUXUXUXUXUXUXUXUXUXUXUXUXUXUXUXUXUXUXUXUXUXUXUX",
"UXUXUXUXUXUXUXUXUXUXUXUXUXUXUXUXUXUXUXUXUXUXUXUXUXUXUXUXUXUXUXUXUXUXUXUXUXUXUXUXUXUXUXUXUXUXUXUXUXUXUXUXUXUXUXUXUXUXUXUXUXUXUXUX",
"UXUXUXUXUXUXUXUXUXUXUXUXUXUXUXUXUXUXUXUXUXUXUXUXUXUXUXUXUXUXUXUXUXUXUXUXUXUXUXUXUXUXUXUXUXUXUXUXUXUXUXUXUXUXUXUXUXUXUXUXUXUXUXUX",
"UXUXUXUXUXUXUXUXUXUXUXUXUXUXUXUXUXUXUXUXUXUXUXUXUXUXUXUXUXUXUXUXUXUXUXUXUXUXUXUXUXUXUXUXUXUXUXUXUXUXUXUXUXUXUXUXUXUXUXUXUXUXUXUX"
};
